<svg xmlns="http://www.w3.org/2000/svg" viewBox="870 371 109 126">
  <g data-item-type="image" data-item="Image" class="logo__item">
    <g fill="#3E6EFF">
      <path d="M889.7532 414.6465c.2734-.1472.8215-.4323 1.1067-.582 2.885-1.5506 5.658-3.3082 8.5549-4.8353.0351-3.4227 0-6.8338-.0573-10.2539.1028-4.1857.0468-8.383.0234-12.5583v-.7525c-3.2626 1.7107-6.365 3.6844-9.5808 5.429-.0469 2.544-.056 5.0879-.0469 7.6201.0677 5.3144-.0338 10.6289 0 15.9329z" data-part-id="logo__item--logo_0__0"/>
      <path d="M905.358 405.7505c3.2626-1.9516 6.6046-3.7639 9.832-5.7597-.0455-2.1911-.0676-4.3692-.0234-6.5473-.0338-2.0883-.0234-4.1753-.0234-6.274.0234-3.5477 0-7.1058-.0221-10.6548-3.2848 1.8148-6.5018 3.752-9.7761 5.6125 0 3.1598 0 6.3195-.0339 9.478.0339 1.6885.0235 3.3771.0235 5.0644.0351 3.023-.0573 6.0461.0234 9.0809z" data-part-id="logo__item--logo_0__1"/>
      <path d="M976.181 460.0117c-.0105-3.5269-.0105-7.0381-.0326-10.552-3.2626 1.8487-6.5474 3.7104-9.7644 5.6477.0234 3.7404-.0443 7.4704 0 11.2134-.0117 2.3955 0 4.791-.0221 7.1735 3.2834-1.755 6.4223-3.7755 9.7396-5.4745.1718-2.6676.0234-5.3405.0794-8.008z" data-part-id="logo__item--logo_0__2"/>
      <path d="M873.9896 412.868c.0912 3.6389-.0234 7.266.0339 10.9036 3.2847-1.7914 6.4458-3.8107 9.7526-5.5319.0912-3.5373-.0234-7.0615.0456-10.5962-.0221-2.0427 0-4.0842 0-6.1256 0-2.294-.0221-4.5853 0-6.8676-2.8056 1.414-5.4524 3.1142-8.2125 4.6088-.5364.388-1.324.582-1.574 1.2772-.0911 1.9164 0 3.8328 0 5.7597-.0234 2.1924 0 4.381-.0456 6.572z" data-part-id="logo__item--logo_0__3"/>
      <path d="M976.125 418.2736c.013-4.312.2499-8.6682-.0912-12.9684-4.2547-2.4645-8.4859-4.9733-12.7861-7.3233-.0117 5.8964-.0573 11.772.0573 17.6696-.1589 6.2505-.0339 12.5245 0 18.7854-9.7188 5.6594-41.9764 24.1258-47.2231 27.2504-1.0728.6054-.457 2.0778-.6614 3.079.056 5.4316.4335 17.9782.4335 22.255 4.105 2.385 8.1904 4.8014 12.3643 7.0746.0339-2.6247 0-5.248.0235-7.8597.0442-5.6477-.1042-11.2928.0442-16.938 1.4608-.3788 44.0764-25.395 47.8858-28.9194-.0469-7.3662.0898-14.735-.0469-22.1052z" data-part-id="logo__item--logo_0__4"/>
      <path d="M934.478 412.2874c0-.1029.1028-28.5979.1718-30.8437-4.2442-2.4984-8.5328-4.916-12.8095-7.3467-.0352 3.9018-.0235 28.2203.0455 31.6535-2.5218 1.3917-45.843 25.3235-48.1019 26.6697.0456 1.1053.056 2.212.0912 3.3186 0 4.0151-.1146 8.0536.0455 12.0557-.1367 5.0424-.069 10.0847-.0455 15.1244 4.3796 2.2835 8.5197 5.0215 12.924 7.2803-.0572-5.304.0795-10.5859-.0806-15.8769.1822-4.519-.0235-9.047.0911-13.5633.0456-.2982.1146-.8567.1367-1.1392 1.8487-1.0415 46.7336-26.9002 47.5316-27.3324z" data-part-id="logo__item--logo_0__5"/>
      <path d="M915.6015 449.9857c2.8733-1.6326 5.7024-3.3668 8.6004-4.9864 2.0531-1.1626 4.0815-2.3955 6.1347-3.5477 6.1827-3.5347 12.32-7.1618 18.525-10.6536 2.1897-1.2095 4.2429-2.613 6.5017-3.6844l-.0235-.388c.069-4.9512.0456-9.901.056-14.851-.0104-4.3809-.0325-8.7384.013-13.1063.0105-1.837-.0234-3.6844-.16-5.5201-4.29-2.2016-8.2347-5.0085-12.6157-7.0043-.0442 2.5778-.0234 5.1556-.0338 7.745.0117 3.9123-.0104 7.8363.0338 11.7603-.0234 4.6075-.0677 9.2058.0456 13.8133-6.6619 3.9591-45.627 26.2245-47.4288 27.2178-.9933.6028-.4674 1.9373-.6054 2.8838.0808 1.7341-.1028 18.331.0573 20.19-.069 1.6431-.069 3.3083-.0573 4.9617 4.368 2.281 8.4065 5.1894 12.9007 7.1983.0469-2.4177.0235-4.8236.0352-7.2439 0-1.5844.0117-3.1806.0325-4.7546-.0455-3.079-.0455-6.171-.0455-9.2631 0-2.0974-.0235-4.196.0455-6.2726 2.7405-1.3696 5.2728-3.0934 7.9886-4.4942z" data-part-id="logo__item--logo_0__6"/>
      <path d="M960.4186 458.5978c-3.286 1.6535-6.3546 3.6949-9.6172 5.429-.0248 5.5761-.0118 11.1652-.0677 16.7322-.0352.6861.0677 1.3371.341 1.9855l.0248-.4323c3.1467-1.6651 6.136-3.6284 9.284-5.2584.0911-2.4307.0351-4.8692.0455-7.2907.0222-3.7404 0-7.447-.0104-11.1653z" data-part-id="logo__item--logo_0__7"/>
      <path d="M944.8477 467.5641c-3.3316 1.7212-6.4562 3.7964-9.7878 5.5175-.0456 3.756 0 7.5186-.0234 11.2824.0234 2.3956-.0235 4.791.0234 7.1983 3.2952-1.7797 6.4796-3.7664 9.7878-5.5461.0234-2.7926-.0234-5.5892-.013-8.3818.013-3.3524.013-6.7061.013-10.0703z" data-part-id="logo__item--logo_0__8"/>
    </g>
  </g>
</svg>
