<svg width="24" height="24" viewBox="0 0 24 24" fill="none" xmlns="http://www.w3.org/2000/svg">
<path d="M16.4628 2.15991C17.881 2.95247 19.0962 4.063 20.0129 5.4043C20.9297 6.7456 21.523 8.28115 21.7463 9.89037C21.9696 11.4996 21.8169 13.1387 21.3 14.6789C20.7832 16.2192 19.9163 17.6186 18.7675 18.7674C17.6187 19.9162 16.2193 20.7831 14.679 21.2999C13.1388 21.8167 11.4997 21.9695 9.89049 21.7462C8.28127 21.5229 6.74572 20.9295 5.40442 20.0128C4.06313 19.0961 2.9526 17.8809 2.16003 16.4627C6.16203 18.7031 11.3196 18.1271 14.7228 14.7239C18.1272 11.3195 18.7044 6.16311 16.4628 2.15991V2.15991Z" fill="#F1C40F"/>
</svg>
