<?xml version="1.0" standalone="no"?>
<!DOCTYPE svg PUBLIC "-//W3C//DTD SVG 20010904//EN"
 "http://www.w3.org/TR/2001/REC-SVG-20010904/DTD/svg10.dtd">
<svg version="1.0" xmlns="http://www.w3.org/2000/svg"
 width="1008.000000pt" height="1008.000000pt" viewBox="0 0 1008.000000 1008.000000"
 preserveAspectRatio="xMidYMid meet">
<metadata>
Created by potrace 1.11, written by Peter Selinger 2001-2013
</metadata>
<g transform="translate(0.000000,1008.000000) scale(0.100000,-0.100000)"
fill="#000000" stroke="none">
<path d="M4829 9784 c-1 -27 -2 -597 -3 -1267 l-1 -1218 -40 -22 c-22 -12 -46
-28 -53 -34 -7 -7 -17 -13 -22 -13 -5 0 -67 -32 -137 -72 -70 -39 -148 -82
-173 -96 -25 -14 -65 -36 -90 -50 -25 -14 -70 -38 -100 -55 -30 -16 -61 -34
-67 -40 -7 -5 -13 -6 -13 -1 0 5 -4 4 -8 -2 -4 -6 -42 -30 -85 -53 -43 -23
-93 -51 -110 -61 -18 -10 -58 -33 -91 -50 -32 -17 -73 -40 -92 -50 -18 -11
-64 -36 -101 -56 -37 -21 -103 -57 -145 -81 -43 -24 -122 -67 -175 -97 -54
-29 -114 -62 -133 -73 -19 -11 -64 -36 -100 -55 -77 -42 -299 -165 -458 -254
-63 -35 -117 -64 -122 -64 -5 0 -10 -3 -12 -7 -1 -5 -23 -18 -48 -30 -25 -12
-56 -29 -70 -37 -52 -31 -222 -126 -225 -126 -2 0 -30 -15 -62 -34 -32 -18
-88 -50 -125 -69 -99 -53 -112 -61 -119 -70 -3 -5 -10 -9 -15 -9 -5 0 -27 -10
-49 -23 -40 -23 -211 -118 -443 -247 -67 -37 -127 -68 -132 -68 -6 0 -10 -4
-10 -9 0 -5 -12 -14 -27 -20 -16 -6 -55 -27 -88 -46 -33 -20 -69 -40 -80 -46
-20 -10 -20 -19 -18 -527 1 -284 2 -627 2 -762 0 -382 0 -1049 1 -1110 l0 -56
73 -37 c76 -39 132 -70 210 -118 26 -16 49 -29 52 -29 2 0 45 -25 96 -55 50
-30 93 -55 95 -55 1 0 39 -22 83 -50 45 -27 81 -46 81 -42 0 4 4 2 8 -4 6 -9
32 -24 187 -109 28 -15 70 -39 94 -52 26 -14 47 -20 50 -15 5 8 6 707 2 1245
-1 76 1 142 4 147 4 6 1 10 -5 10 -6 0 -8 5 -4 12 5 7 9 231 11 498 1 267 3
492 3 501 1 14 38 39 140 97 19 10 60 34 90 52 30 18 73 43 95 55 57 31 89 49
95 55 3 3 18 12 35 20 28 14 283 160 315 180 8 5 49 29 90 52 41 24 84 48 95
55 11 7 27 15 35 19 8 4 33 19 54 32 69 43 140 83 159 89 9 3 17 10 17 15 0 5
4 7 9 4 5 -3 14 1 21 9 7 8 19 15 26 15 8 0 14 4 14 9 0 5 6 11 13 13 10 2
206 111 267 148 8 5 51 30 95 55 44 25 87 50 95 56 8 5 22 12 30 16 8 4 33 17
54 31 22 13 58 34 80 47 38 20 533 305 601 346 17 10 53 30 80 45 28 14 62 35
77 45 14 11 29 19 32 19 4 0 40 20 80 45 41 25 79 45 85 45 6 0 11 5 11 10 0
6 4 10 9 10 10 0 279 153 298 170 7 5 19 10 28 10 8 0 15 4 15 8 0 10 50 37
63 34 4 -1 7 2 7 7 0 5 8 11 18 14 9 4 40 20 67 37 28 17 58 33 68 37 9 3 17
8 17 12 0 3 15 12 33 20 17 8 34 17 37 20 3 4 30 19 60 36 30 16 87 48 125 70
l70 42 2 109 c1 60 3 125 4 144 0 19 0 62 -1 95 -1 33 1 524 4 1090 6 1012 6
1030 -13 1042 -11 7 -93 55 -183 107 -90 51 -179 103 -198 114 -19 11 -57 33
-85 47 -27 15 -57 33 -65 39 -8 7 -33 22 -55 33 -22 11 -58 30 -80 43 -193
109 -273 155 -287 168 -10 8 -18 12 -18 7 0 -4 -7 -2 -15 5 -13 11 -15 6 -16
-36z"/>
<path d="M4264 9626 c-10 -7 -44 -27 -74 -43 -30 -17 -84 -46 -118 -67 -35
-20 -68 -36 -73 -36 -5 0 -9 -4 -9 -9 0 -5 -8 -11 -17 -15 -10 -3 -31 -14 -48
-23 -16 -10 -57 -34 -90 -52 -33 -19 -62 -37 -65 -40 -5 -6 -60 -37 -134 -75
-22 -12 -45 -25 -50 -29 -6 -4 -26 -18 -45 -30 l-34 -23 -1 -874 c0 -481 1
-905 4 -941 l5 -66 90 53 c50 29 95 57 100 61 6 4 29 17 52 28 24 11 43 23 43
28 0 4 4 7 9 7 5 0 75 38 156 85 80 47 150 85 155 85 4 0 10 3 12 8 2 4 37 27
78 52 41 24 77 45 79 47 5 3 2 1875 -2 1880 -2 1 -12 -4 -23 -11z"/>
<path d="M2975 8879 c-16 -11 -42 -25 -57 -31 -16 -5 -28 -14 -28 -19 0 -5 -4
-9 -10 -9 -8 0 -104 -52 -150 -80 -41 -26 -222 -130 -227 -130 -2 0 -24 -14
-49 -30 -24 -17 -44 -28 -44 -25 0 3 -16 -6 -35 -21 -19 -14 -35 -23 -35 -19
0 4 -7 1 -16 -6 -9 -7 -26 -18 -38 -24 -20 -10 -21 -18 -22 -140 -1 -72 -3
-134 -4 -140 -1 -5 -2 -14 -1 -20 2 -14 2 -451 0 -461 -1 -5 -1 -11 0 -14 7
-19 4 -410 -2 -410 -5 0 -5 -4 -2 -10 6 -9 9 -460 3 -465 -2 -2 -1 -38 2 -79
3 -42 2 -86 -1 -99 -3 -12 -3 -30 0 -39 5 -15 9 -16 31 -3 14 7 41 22 60 31
19 10 76 42 127 71 51 29 97 53 102 53 6 0 11 5 11 10 0 6 6 10 14 10 8 0 16
3 18 8 2 4 21 16 43 27 22 11 42 22 45 25 3 3 14 10 25 16 59 31 91 50 95 55
3 3 28 17 56 31 76 40 128 69 138 79 8 7 10 500 7 1662 -1 236 0 233 -56 196z"/>
<path d="M6490 8693 c-1 -415 2 -2393 4 -2441 2 -56 -1 -60 -94 -112 -14 -7
-155 -89 -314 -182 -159 -92 -293 -168 -297 -168 -5 0 -9 -3 -9 -8 0 -4 -15
-14 -32 -21 -29 -13 -87 -46 -153 -89 -11 -6 -27 -15 -35 -19 -8 -4 -37 -20
-65 -36 -50 -30 -122 -71 -160 -91 -11 -6 -31 -19 -45 -27 -14 -9 -50 -30 -80
-46 -70 -38 -216 -124 -252 -147 -16 -10 -28 -14 -28 -10 0 5 -4 4 -8 -1 -7
-10 -166 -105 -282 -168 -30 -17 -84 -48 -119 -69 -34 -21 -64 -38 -66 -38 -2
0 -38 -20 -79 -45 -42 -25 -81 -45 -86 -45 -6 0 -10 -5 -10 -11 0 -5 -4 -7
-10 -4 -6 3 -10 1 -10 -4 0 -6 -7 -11 -15 -11 -8 0 -15 -4 -15 -10 0 -5 -3 -9
-7 -8 -5 1 -39 -16 -78 -38 -71 -42 -110 -64 -220 -127 -33 -19 -77 -44 -97
-56 -21 -11 -55 -30 -75 -42 -21 -12 -42 -25 -48 -29 -5 -4 -35 -21 -65 -37
-98 -53 -245 -137 -250 -143 -3 -3 -27 -17 -55 -30 -27 -14 -52 -28 -55 -31
-5 -5 -209 -122 -320 -182 -30 -17 -66 -37 -80 -46 -14 -9 -38 -23 -55 -31
-16 -8 -32 -18 -35 -21 -3 -4 -25 -16 -49 -29 -52 -26 -68 -40 -80 -72 -4 -13
-8 -512 -8 -1110 l0 -1087 46 -22 c25 -11 54 -28 64 -37 9 -8 17 -12 17 -9 0
4 25 -9 55 -28 30 -19 59 -35 65 -35 5 0 10 -5 10 -11 0 -5 4 -8 9 -5 4 3 16
-3 26 -14 10 -11 24 -20 30 -20 7 0 23 -8 36 -18 13 -10 44 -30 69 -43 25 -13
47 -27 50 -30 5 -6 138 -81 155 -88 6 -2 12 -7 15 -11 8 -12 369 -200 383
-200 2 0 3 485 2 1078 0 592 1 1088 3 1102 2 16 14 30 30 38 15 6 97 51 182
100 85 49 166 95 180 103 14 8 32 19 40 25 8 6 42 26 75 44 123 67 161 88 195
108 19 12 51 29 70 39 19 9 37 19 40 22 5 6 20 15 99 59 25 13 58 33 73 43 14
11 29 19 32 19 4 0 25 12 49 27 23 15 51 33 62 39 11 6 39 22 63 35 24 13 51
29 60 34 9 6 44 25 77 44 33 19 93 54 132 78 40 23 77 43 83 43 5 0 10 5 10
10 0 6 4 10 9 10 5 0 92 48 193 107 193 112 226 131 298 171 25 13 53 32 64
41 10 9 19 14 20 12 0 -3 33 14 71 36 154 90 322 187 350 202 16 9 32 18 35
21 9 9 65 41 103 58 20 9 37 20 37 24 0 5 7 8 15 8 8 0 15 3 15 8 0 4 15 13
33 21 28 13 90 48 153 88 10 7 36 20 57 29 20 9 37 20 37 25 0 5 6 9 13 9 7 0
29 11 50 25 20 14 37 22 37 18 0 -4 4 -3 8 3 4 6 38 27 75 48 38 20 145 82
238 137 237 140 248 145 306 175 l52 26 1 516 c2 1029 0 2058 -5 2121 -2 35
-8 67 -12 72 -9 8 -32 21 -158 89 -44 23 -88 50 -97 58 -10 8 -18 11 -18 7 0
-4 -8 -1 -17 7 -10 8 -74 48 -143 89 -69 41 -133 78 -142 84 -9 5 -41 23 -70
39 -29 16 -65 37 -80 48 -16 11 -28 17 -28 14 0 -4 -17 4 -37 17 -21 13 -74
41 -118 62 -44 21 -83 40 -87 42 -5 2 -8 -71 -8 -164z"/>
<path d="M1764 8175 c-12 -8 -24 -11 -28 -8 -3 3 -6 1 -6 -5 0 -7 -5 -12 -11
-12 -11 0 -146 -74 -239 -130 -25 -15 -65 -39 -90 -52 -190 -105 -353 -204
-369 -224 -13 -16 -18 -40 -19 -83 0 -33 -3 -64 -7 -70 -3 -6 -1 -11 5 -11 7
0 8 -6 2 -16 -5 -9 -6 -34 -2 -55 4 -22 3 -39 -2 -39 -5 0 -6 -5 -2 -11 4 -6
6 -149 5 -318 -1 -168 -1 -314 -1 -323 0 -10 0 -25 0 -33 0 -45 0 -149 0 -180
0 -8 1 -118 2 -245 2 -126 0 -230 -4 -230 -3 0 -5 -8 -3 -17 13 -68 14 -84 3
-77 -6 4 -8 3 -4 -4 3 -6 7 -47 8 -91 l1 -81 86 47 c47 25 93 51 101 57 8 6
35 22 60 36 25 13 47 26 50 29 3 3 14 11 25 17 34 19 106 59 210 118 55 31
107 60 115 65 70 37 117 64 125 72 6 6 10 352 10 949 0 517 0 940 0 940 0 0
-10 -7 -21 -15z"/>
<path d="M8140 7673 c-1 -136 0 -392 0 -568 2 -444 2 -642 2 -1240 -1 -286 0
-596 1 -689 l3 -168 -36 -23 c-19 -12 -47 -28 -62 -36 -15 -8 -57 -32 -95 -54
-37 -22 -80 -47 -95 -55 -14 -8 -52 -30 -84 -47 -32 -18 -61 -33 -66 -33 -4 0
-8 -4 -8 -10 0 -5 -7 -10 -15 -10 -8 0 -15 -3 -15 -8 0 -4 -15 -14 -32 -21
-18 -8 -84 -45 -145 -82 -62 -37 -113 -64 -113 -61 0 4 -4 2 -8 -4 -4 -6 -44
-32 -89 -57 -46 -26 -120 -68 -165 -94 -46 -25 -86 -51 -90 -57 -4 -6 -8 -7
-8 -3 0 5 -12 0 -27 -11 -16 -10 -64 -39 -108 -64 -75 -43 -101 -57 -192 -109
-21 -12 -78 -45 -128 -74 -49 -29 -107 -62 -127 -74 -21 -12 -53 -30 -72 -40
-18 -11 -44 -25 -57 -33 -13 -7 -26 -15 -29 -18 -3 -3 -16 -11 -30 -17 -14 -7
-43 -24 -65 -38 -22 -13 -56 -33 -75 -43 -19 -10 -94 -53 -167 -95 -73 -43
-137 -77 -143 -77 -5 0 -10 -4 -10 -10 0 -5 -4 -10 -9 -10 -5 0 -70 -36 -145
-80 -76 -44 -141 -80 -146 -80 -6 0 -10 -4 -10 -8 0 -4 -12 -13 -27 -19 -16
-7 -48 -24 -73 -39 -25 -15 -63 -37 -85 -50 -22 -12 -102 -59 -179 -103 -76
-45 -140 -81 -142 -81 -2 0 -28 -16 -58 -35 -30 -19 -58 -35 -61 -35 -3 0 -24
-12 -48 -27 -40 -26 -111 -67 -207 -121 -147 -82 -262 -156 -272 -175 -14 -27
-19 -455 -5 -475 5 -6 6 -12 1 -12 -10 0 -10 -92 0 -108 3 -6 2 -13 -4 -17 -6
-4 -7 -11 -4 -17 4 -6 8 -90 10 -187 4 -219 13 -646 14 -646 0 0 3 -112 5
-250 2 -137 4 -257 4 -266 1 -9 19 -24 41 -34 22 -10 40 -21 40 -25 0 -5 11
-11 25 -14 14 -4 25 -11 25 -16 0 -6 6 -10 13 -10 6 0 49 -23 95 -50 46 -28
86 -50 89 -50 4 0 14 -6 22 -14 9 -7 41 -26 71 -42 30 -16 57 -31 60 -34 10
-11 190 -110 200 -110 5 0 10 -4 10 -9 0 -5 8 -11 18 -14 9 -4 37 -18 61 -32
24 -15 65 -38 90 -51 25 -14 60 -34 76 -44 17 -10 35 -19 41 -19 9 -1 12 109
13 410 0 226 3 415 6 420 4 5 3 9 -2 9 -7 0 -8 970 -1 1084 3 43 7 52 33 66
71 39 174 95 220 119 28 14 52 29 55 32 3 4 33 22 68 40 84 45 110 60 152 86
46 28 108 63 145 81 17 9 32 18 35 22 3 3 46 29 95 56 188 105 340 196 343
205 2 5 9 9 15 9 7 0 49 23 95 50 46 28 85 50 88 50 3 0 10 5 17 10 10 9 270
164 342 204 17 10 194 115 245 147 8 5 80 48 160 95 80 48 157 94 171 103 15
9 53 31 85 50 33 19 61 37 64 41 3 3 16 11 30 18 40 20 85 46 90 53 3 3 19 14
35 23 17 9 46 27 66 39 122 75 235 144 260 159 121 73 485 304 487 310 2 5 9
8 16 8 7 0 21 9 31 20 10 11 22 20 28 20 5 0 65 38 133 85 69 47 129 85 134
85 6 0 10 4 10 8 0 5 19 22 43 39 l42 31 -1 1308 c-1 720 -3 1345 -4 1388 -2
85 -12 126 -31 126 -7 0 -20 6 -28 14 -14 12 -347 206 -471 274 -25 13 -52 30
-60 37 -8 6 -31 19 -50 28 -19 10 -53 28 -75 41 -22 14 -56 33 -75 44 -19 11
-51 28 -70 39 -19 11 -65 36 -102 57 l-68 38 0 -249z"/>
<path d="M9133 3780 c-17 -10 -34 -16 -37 -13 -3 4 -6 2 -6 -4 0 -5 -19 -20
-42 -32 -24 -12 -65 -35 -93 -51 -27 -16 -61 -35 -75 -43 -95 -53 -131 -74
-232 -133 -62 -37 -126 -75 -143 -85 -16 -10 -48 -28 -71 -40 l-41 -22 -2
-120 c-1 -66 -4 -124 -7 -128 -3 -5 -2 -9 3 -9 4 0 7 -274 5 -610 l-2 -609 42
22 c24 12 45 25 46 30 2 4 8 7 12 7 8 0 189 103 285 162 17 10 36 21 43 24 7
4 66 36 130 73 64 36 135 75 157 86 22 11 43 25 47 30 5 7 8 7 10 0 1 -5 4 19
7 55 7 75 6 1418 -1 1425 -2 2 -18 -4 -35 -15z"/>
<path d="M7865 3048 c-32 -16 -224 -125 -307 -173 -34 -20 -244 -141 -293
-169 -27 -16 -66 -37 -85 -47 l-35 -19 -2 -561 c-1 -309 -4 -563 -7 -566 -3
-3 -1 -15 4 -28 5 -13 6 -25 4 -28 -10 -9 -9 -177 0 -177 5 0 4 -6 -2 -13 -5
-7 -6 -21 -1 -32 4 -11 8 -32 8 -47 1 -26 15 -38 23 -19 4 10 233 141 246 141
6 0 12 7 16 15 3 8 10 15 16 15 10 0 156 83 290 164 19 11 37 21 40 21 3 0 16
8 30 17 14 9 42 24 63 34 35 17 37 20 38 68 4 173 3 1426 -1 1426 -3 -1 -23
-10 -45 -22z"/>
<path d="M6590 2315 c-36 -19 -69 -37 -75 -42 -5 -4 -27 -17 -47 -28 -76 -42
-314 -179 -339 -196 -14 -10 -65 -39 -115 -65 -49 -26 -98 -53 -109 -61 -20
-13 -20 -25 -21 -748 0 -404 1 -735 3 -735 6 0 156 82 196 107 21 13 48 28 60
34 12 5 36 18 52 29 17 11 44 27 60 35 17 9 44 24 60 35 17 11 44 26 60 34 17
9 44 24 60 34 17 9 75 43 131 74 l101 57 0 736 c0 404 -3 735 -6 735 -3 -1
-35 -16 -71 -35z"/>
</g>
</svg>
